<svg width="15" height="13" viewBox="0 0 15 13" fill="none" xmlns="http://www.w3.org/2000/svg">
<path d="M12.1916 2.28079C11.915 2.004 11.5865 1.78443 11.225 1.63462C10.8634 1.48482 10.4759 1.40771 10.0846 1.40771C9.69321 1.40771 9.30569 1.48482 8.94415 1.63462C8.58261 1.78443 8.25413 2.004 7.97747 2.28079L7.4033 2.85495L6.82914 2.28079C6.2703 1.72195 5.51236 1.408 4.72205 1.408C3.93174 1.408 3.1738 1.72195 2.61497 2.28079C2.05614 2.83962 1.74219 3.59756 1.74219 4.38787C1.74219 5.17818 2.05614 5.93612 2.61497 6.49495L3.18914 7.06912L7.4033 11.2833L11.6175 7.06912L12.1916 6.49495C12.4684 6.21829 12.688 5.88981 12.8378 5.52827C12.9876 5.16673 13.0647 4.77922 13.0647 4.38787C13.0647 3.99652 12.9876 3.60901 12.8378 3.24747C12.688 2.88593 12.4684 2.55745 12.1916 2.28079V2.28079Z" stroke="#7D8082" stroke-width="2" stroke-linecap="round" stroke-linejoin="round"/>
</svg>
