<svg width="104" height="20" viewBox="0 0 104 20" fill="none" xmlns="http://www.w3.org/2000/svg">
<path d="M16.0074 6.88067L11.0484 5.99456L8.83161 0.46896C8.77107 0.317673 8.67146 0.195202 8.54841 0.120759C8.23982 -0.0665497 7.86482 0.0895406 7.71052 0.46896L5.49372 5.99456L0.534735 6.88067C0.398017 6.90469 0.273016 6.98393 0.177313 7.104C0.0616135 7.25021 -0.0021424 7.44692 5.49725e-05 7.6509C0.00225234 7.85488 0.0702232 8.04944 0.189032 8.19183L3.77692 12.4927L2.92927 18.5658C2.90939 18.7071 2.9221 18.8524 2.96597 18.9852C3.00984 19.1181 3.0831 19.2332 3.17745 19.3174C3.2718 19.4017 3.38346 19.4517 3.49977 19.4619C3.61609 19.4721 3.7324 19.442 3.83552 19.3751L8.27107 16.5078L12.7066 19.3751C12.8277 19.4543 12.9683 19.4808 13.1031 19.4519C13.4429 19.3799 13.6715 18.9837 13.6129 18.5658L12.7652 12.4927L16.3531 8.19183C16.4508 8.07416 16.5152 7.92047 16.5347 7.75238C16.5875 7.33213 16.3492 6.94311 16.0074 6.88067Z" fill="#FC8800"/>
<path d="M59.2808 6.88067L54.3218 5.99456L52.1051 0.46896C52.0445 0.317673 51.9449 0.195202 51.8218 0.120759C51.5133 -0.0665497 51.1383 0.0895406 50.984 0.46896L48.7672 5.99456L43.8082 6.88067C43.6715 6.90469 43.5465 6.98393 43.4508 7.104C43.3351 7.25021 43.2713 7.44692 43.2735 7.6509C43.2757 7.85488 43.3437 8.04944 43.4625 8.19183L47.0504 12.4927L46.2027 18.5658C46.1828 18.7071 46.1955 18.8524 46.2394 18.9852C46.2833 19.1181 46.3565 19.2332 46.4509 19.3174C46.5452 19.4017 46.6569 19.4517 46.7732 19.4619C46.8895 19.4721 47.0058 19.442 47.109 19.3751L51.5445 16.5078L55.9801 19.3751C56.1011 19.4543 56.2418 19.4808 56.3765 19.4519C56.7164 19.3799 56.9449 18.9837 56.8863 18.5658L56.0386 12.4927L59.6265 8.19183C59.7242 8.07416 59.7886 7.92047 59.8082 7.75238C59.8609 7.33213 59.6226 6.94311 59.2808 6.88067Z" fill="#FC8800"/>
<path d="M37.2808 6.88067L32.3218 5.99456L30.1051 0.46896C30.0445 0.317673 29.9449 0.195202 29.8218 0.120759C29.5133 -0.0665497 29.1383 0.0895406 28.984 0.46896L26.7672 5.99456L21.8082 6.88067C21.6715 6.90469 21.5465 6.98393 21.4508 7.104C21.3351 7.25021 21.2713 7.44692 21.2735 7.6509C21.2757 7.85488 21.3437 8.04944 21.4625 8.19183L25.0504 12.4927L24.2027 18.5658C24.1828 18.7071 24.1955 18.8524 24.2394 18.9852C24.2833 19.1181 24.3565 19.2332 24.4509 19.3174C24.5452 19.4017 24.6569 19.4517 24.7732 19.4619C24.8895 19.4721 25.0058 19.442 25.109 19.3751L29.5445 16.5078L33.9801 19.3751C34.1011 19.4543 34.2418 19.4808 34.3765 19.4519C34.7164 19.3799 34.9449 18.9837 34.8863 18.5658L34.0386 12.4927L37.6265 8.19183C37.7242 8.07416 37.7886 7.92047 37.8082 7.75238C37.8609 7.33213 37.6226 6.94311 37.2808 6.88067Z" fill="#FC8800"/>
<path d="M81.2808 6.88067L76.3218 5.99456L74.1051 0.46896C74.0445 0.317673 73.9449 0.195202 73.8218 0.120759C73.5133 -0.0665497 73.1383 0.0895406 72.984 0.46896L70.7672 5.99456L65.8082 6.88067C65.6715 6.90469 65.5465 6.98393 65.4508 7.104C65.3351 7.25021 65.2713 7.44692 65.2735 7.6509C65.2757 7.85488 65.3437 8.04944 65.4625 8.19183L69.0504 12.4927L68.2027 18.5658C68.1828 18.7071 68.1955 18.8524 68.2394 18.9852C68.2833 19.1181 68.3565 19.2332 68.4509 19.3174C68.5452 19.4017 68.6569 19.4517 68.7732 19.4619C68.8895 19.4721 69.0058 19.442 69.109 19.3751L73.5445 16.5078L77.9801 19.3751C78.1011 19.4543 78.2418 19.4808 78.3765 19.4519C78.7164 19.3799 78.9449 18.9837 78.8863 18.5658L78.0386 12.4927L81.6265 8.19183C81.7242 8.07416 81.7886 7.92047 81.8082 7.75238C81.8609 7.33213 81.6226 6.94311 81.2808 6.88067Z" fill="#FC8800"/>
<path d="M98.1414 6.21628L98.0898 6.08764L95.873 0.562045L95.8729 0.56185C95.8298 0.453956 95.7629 0.377309 95.6924 0.334659L95.6921 0.334472C95.6075 0.283077 95.5205 0.280118 95.441 0.313179C95.3585 0.347469 95.271 0.427215 95.2157 0.562625C95.2157 0.562796 95.2156 0.562966 95.2155 0.563137L92.9992 6.08764L92.9476 6.21628L92.8111 6.24066L87.8521 7.12677L87.8514 7.1269C87.7831 7.1389 87.7097 7.18034 87.6465 7.25949C87.5699 7.3565 87.5218 7.4959 87.5235 7.6482C87.5251 7.80072 87.5763 7.93801 87.6544 8.03167L87.6544 8.03168L91.2423 12.3326L91.3133 12.4176L91.298 12.5273L90.4503 18.6004L90.4503 18.6007C90.4356 18.7047 90.4452 18.8112 90.4768 18.9069C90.5084 19.0026 90.5591 19.0789 90.6174 19.1309C90.6751 19.1824 90.737 19.2078 90.795 19.2129C90.8527 19.2179 90.9138 19.2037 90.9728 19.1654L90.9732 19.1651L95.4088 16.2979L95.5445 16.2102L95.6802 16.2979L100.116 19.1651L100.117 19.1659C100.184 19.2097 100.257 19.2219 100.324 19.2075L100.325 19.2074C100.498 19.1706 100.685 18.9303 100.639 18.6006L100.639 18.6004L99.791 12.5273L99.7757 12.4176L99.8467 12.3326L103.434 8.03217C103.434 8.03215 103.434 8.03213 103.434 8.03211L98.1414 6.21628ZM98.1414 6.21628L98.2779 6.24066M98.1414 6.21628L98.2779 6.24066M98.2779 6.24066L103.236 7.1266L98.2779 6.24066Z" fill="white" stroke="black" stroke-width="0.5"/>
</svg>
