<svg width="19" height="19" viewBox="0 0 19 19" fill="none" xmlns="http://www.w3.org/2000/svg">
<path d="M1.49684 2.8374C1.1666 2.8374 0.914062 3.09545 0.914062 3.43291C0.914062 3.77036 1.1666 4.02841 1.49684 4.02841H3.75025L5.75112 13.6954C5.82882 14.0527 6.06194 14.3703 6.35332 14.3505H16.0663C16.3771 14.3505 16.6491 14.0726 16.6491 13.755C16.6491 13.4374 16.3577 13.1595 16.0663 13.1595H6.81955L6.56701 11.9684H16.8433C17.0959 11.9684 17.3484 11.7699 17.4067 11.5119L18.7665 5.55686C18.8442 5.2194 18.5528 4.84226 18.2031 4.82241H5.11006L4.79925 3.3138C4.74097 3.05575 4.48843 2.8374 4.2359 2.8374H1.49684ZM5.34318 6.01342H17.465L16.3771 10.7774H6.3339L5.34318 6.01342ZM8.29592 14.7475C7.22749 14.7475 6.35332 15.6407 6.35332 16.7325C6.35332 17.8242 7.22749 18.7175 8.29592 18.7175C9.36434 18.7175 10.2385 17.8242 10.2385 16.7325C10.2385 15.6407 9.36434 14.7475 8.29592 14.7475ZM14.1237 14.7475C13.0553 14.7475 12.1811 15.6407 12.1811 16.7325C12.1811 17.8242 13.0553 18.7175 14.1237 18.7175C15.1921 18.7175 16.0663 17.8242 16.0663 16.7325C16.0663 15.6407 15.1921 14.7475 14.1237 14.7475ZM8.29592 15.9385C8.72329 15.9385 9.07296 16.2958 9.07296 16.7325C9.07296 17.1692 8.72329 17.5265 8.29592 17.5265C7.86855 17.5265 7.51888 17.1692 7.51888 16.7325C7.51888 16.2958 7.86855 15.9385 8.29592 15.9385ZM14.1237 15.9385C14.5511 15.9385 14.9007 16.2958 14.9007 16.7325C14.9007 17.1692 14.5511 17.5265 14.1237 17.5265C13.6963 17.5265 13.3467 17.1692 13.3467 16.7325C13.3467 16.2958 13.6963 15.9385 14.1237 15.9385Z" fill="white"/>
</svg>
